<?xml version="1.0" encoding="UTF-8" standalone="no"?>
<!-- Generator: Adobe Illustrator 18.0.0, SVG Export Plug-In . SVG Version: 6.00 Build 0)  -->

<svg
   xmlns:dc="http://purl.org/dc/elements/1.1/"
   xmlns:cc="http://creativecommons.org/ns#"
   xmlns:rdf="http://www.w3.org/1999/02/22-rdf-syntax-ns#"
   xmlns:svg="http://www.w3.org/2000/svg"
   xmlns="http://www.w3.org/2000/svg"
   xmlns:sodipodi="http://sodipodi.sourceforge.net/DTD/sodipodi-0.dtd"
   xmlns:inkscape="http://www.inkscape.org/namespaces/inkscape"
   version="1.1"
   id="Capa_1"
   x="0px"
   y="0px"
   viewBox="0 0 59.477 59.477"
   style="enable-background:new 0 0 59.477 59.477;"
   xml:space="preserve"
   inkscape:version="0.91 r13725"
   sodipodi:docname="portfolioLogo.svg"><metadata
     id="metadata75"><rdf:RDF><cc:Work
         rdf:about=""><dc:format>image/svg+xml</dc:format><dc:type
           rdf:resource="http://purl.org/dc/dcmitype/StillImage" /><dc:title></dc:title></cc:Work></rdf:RDF></metadata><defs
     id="defs73" /><sodipodi:namedview
     pagecolor="#ffffff"
     bordercolor="#666666"
     borderopacity="1"
     objecttolerance="10"
     gridtolerance="10"
     guidetolerance="10"
     inkscape:pageopacity="0"
     inkscape:pageshadow="2"
     inkscape:window-width="1204"
     inkscape:window-height="697"
     id="namedview71"
     showgrid="false"
     inkscape:zoom="3.9679203"
     inkscape:cx="29.738501"
     inkscape:cy="39.819348"
     inkscape:window-x="-8"
     inkscape:window-y="-8"
     inkscape:window-maximized="1"
     inkscape:current-layer="g3" /><g
     id="g3"
     transform="matrix(0.421875,0,0,0.29051596,17.192571,17.193161)"><g
       id="g5"><path
         style="fill:#efc9b3"
         d="m 29.739,50.223 c 0,7.875 9.048,11.5 10,4.605 0.423,-3.061 3.236,-1.529 4.611,-4.387 0.745,-1.549 0.349,-2.804 1.849,-3.573 2.766,-1.42 4.733,-5.461 4.54,-8.645 -0.104,-1.726 2.792,-4.559 3.719,-6 1.708,-2.658 1.708,-6.342 0,-9 -0.926,-1.441 -1.371,-4.274 -1.266,-6 0.193,-3.184 -1.481,-6.58 -4.247,-8 l 0,0 c -1.5,-0.77 -2.715,-0.451 -3.46,-2 -1.375,-2.857 -2.662,-3.199 -5.745,-3 -1.671,0.108 -2.417,-2.977 -5,-2.977 -0.014,0 -0.02,-0.023 -0.034,-0.023 -2.675,0 -4.966,1.445 -4.966,3 l 0,46 z"
         id="path7"
         inkscape:connector-curvature="0" /><path
         style="fill:#cf8c6d"
         d="m 36.239,59.477 c -0.11,0 -0.219,-0.004 -0.328,-0.011 -3.464,-0.238 -7.173,-4.01 -7.173,-9.244 l 0,-46 c 0,-2.168 2.732,-4 5.966,-4 l 0.505,0.05 c 1.569,0.181 2.56,1.239 3.301,2.032 0.431,0.46 0.849,0.979 1.163,0.92 3.35,-0.217 5.115,0.247 6.711,3.564 0.303,0.629 0.634,0.725 1.435,0.956 0.465,0.134 0.993,0.286 1.581,0.588 3.044,1.563 5.013,5.243 4.789,8.95 -0.096,1.588 0.336,4.195 1.11,5.398 1.907,2.968 1.907,7.114 0,10.082 -0.295,0.458 -0.727,0.991 -1.227,1.609 -0.892,1.102 -2.386,2.945 -2.335,3.789 0.227,3.736 -2.053,8.041 -5.082,9.596 -0.545,0.28 -0.637,0.563 -0.843,1.42 -0.114,0.474 -0.256,1.063 -0.561,1.697 -0.823,1.711 -2.114,2.201 -3.057,2.561 -0.936,0.355 -1.323,0.503 -1.465,1.529 -0.461,3.341 -2.563,4.514 -4.49,4.514 z M 34.27,2.237 c -2.073,0.137 -3.531,1.231 -3.531,1.985 l 0,46 c 0,4.433 3.14,7.1 5.31,7.249 1.466,0.073 2.438,-0.886 2.699,-2.78 0.304,-2.2 1.709,-2.735 2.735,-3.125 0.831,-0.316 1.488,-0.566 1.965,-1.559 0.212,-0.441 0.317,-0.878 0.419,-1.3 0.228,-0.945 0.487,-2.018 1.874,-2.729 2.307,-1.184 4.175,-4.78 3.999,-7.695 -0.098,-1.62 1.429,-3.506 2.777,-5.17 0.444,-0.548 0.863,-1.065 1.098,-1.432 1.499,-2.331 1.499,-5.587 0,-7.918 -1.043,-1.622 -1.543,-4.63 -1.423,-6.602 0.175,-2.893 -1.383,-5.857 -3.706,-7.05 C 48.071,9.898 47.66,9.78 47.264,9.665 46.33,9.395 45.272,9.09 44.582,7.655 43.427,5.256 42.593,5.043 39.802,5.219 38.584,5.277 37.763,4.432 37.049,3.669 36.22,2.782 35.651,2.244 34.738,2.244 L 34.27,2.237 Z"
         id="path9"
         inkscape:connector-curvature="0" /></g><g
       id="g11"><path
         style="fill:#efc9b3"
         d="m 29.739,50.223 c 0,7.875 -9.048,11.5 -10,4.605 -0.423,-3.061 -3.236,-1.529 -4.611,-4.387 -0.745,-1.549 -0.349,-2.804 -1.849,-3.573 -2.766,-1.42 -4.733,-5.461 -4.54,-8.645 0.104,-1.726 -2.792,-4.559 -3.719,-6 -1.708,-2.658 -1.708,-6.342 0,-9 0.926,-1.441 1.371,-4.274 1.266,-6 -0.193,-3.184 1.481,-6.58 4.247,-8 l 0,0 c 1.5,-0.77 2.715,-0.451 3.46,-2 1.375,-2.857 2.662,-3.199 5.745,-3 1.671,0.108 2.417,-2.583 5,-2.977 0.013,-0.002 0.022,-0.015 0.034,-0.023 1.449,-0.982 4.966,1.445 4.966,3 l 0,46 z"
         id="path13"
         inkscape:connector-curvature="0" /><path
         style="fill:#cf8c6d"
         d="m 23.238,59.477 c -1.927,0 -4.029,-1.173 -4.49,-4.513 C 18.606,53.938 18.219,53.79 17.283,53.435 16.341,53.077 15.05,52.585 14.227,50.874 13.922,50.24 13.78,49.65 13.665,49.177 13.458,48.321 13.367,48.037 12.822,47.757 9.794,46.202 7.514,41.898 7.74,38.161 7.791,37.317 6.297,35.473 5.405,34.372 4.905,33.754 4.473,33.221 4.178,32.763 2.271,29.795 2.271,25.649 4.178,22.681 4.952,21.478 5.384,18.87 5.288,17.283 5.063,13.576 7.033,9.895 10.077,8.333 10.664,8.031 11.192,7.879 11.658,7.745 12.459,7.514 12.79,7.418 13.092,6.789 c 1.597,-3.315 3.36,-3.779 6.711,-3.564 0.333,0.04 0.698,-0.327 1.281,-0.904 0.738,-0.73 1.736,-1.719 3.294,-2.026 0.887,-0.486 2.125,-0.365 3.447,0.336 1.451,0.77 2.915,2.179 2.915,3.593 l 0,46 c 0,5.234 -3.709,9.006 -7.173,9.244 -0.11,0.005 -0.219,0.009 -0.329,0.009 z M 18.441,5.172 c -1.842,0 -2.583,0.481 -3.547,2.484 -0.689,1.435 -1.748,1.74 -2.682,2.01 -0.396,0.115 -0.807,0.233 -1.222,0.446 -2.322,1.192 -3.881,4.157 -3.706,7.05 0.12,1.972 -0.38,4.979 -1.423,6.602 -1.499,2.331 -1.499,5.587 0,7.918 0.235,0.366 0.654,0.884 1.098,1.432 1.348,1.664 2.875,3.55 2.777,5.17 -0.176,2.915 1.692,6.512 3.999,7.695 1.387,0.712 1.646,1.784 1.874,2.729 0.102,0.422 0.207,0.858 0.42,1.3 0.477,0.992 1.134,1.242 1.965,1.559 1.026,0.39 2.432,0.925 2.735,3.125 0.261,1.895 1.222,2.856 2.699,2.78 2.17,-0.149 5.31,-2.816 5.31,-7.249 l 0,-46 C 28.738,3.925 28.035,3.006 26.886,2.397 26.099,1.98 25.561,1.949 25.369,2.032 L 25.213,2.176 24.884,2.237 C 23.852,2.394 23.19,3.05 22.489,3.743 21.751,4.474 20.915,5.3 19.672,5.222 19.213,5.19 18.805,5.172 18.441,5.172 Z"
         id="path15"
         inkscape:connector-curvature="0" /></g><path
       style="fill:#cf8c6d"
       d="m 44.739,49.223 c -0.552,0 -1,-0.447 -1,-1 0,-2.757 -2.243,-5 -5,-5 -0.552,0 -1,-0.447 -1,-1 0,-0.553 0.448,-1 1,-1 3.86,0 7,3.141 7,7 0,0.552 -0.448,1 -1,1 z"
       id="path17"
       inkscape:connector-curvature="0" /><path
       style="fill:#cf8c6d"
       d="m 14.739,49.223 c -0.552,0 -1,-0.447 -1,-1 0,-3.859 3.14,-7 7,-7 0.552,0 1,0.447 1,1 0,0.553 -0.448,1 -1,1 -2.757,0 -5,2.243 -5,5 0,0.552 -0.448,1 -1,1 z"
       id="path19"
       inkscape:connector-curvature="0" /><path
       style="fill:#cf8c6d"
       d="m 41.739,13.223 c -0.552,0 -1,-0.447 -1,-1 0,-2.757 2.243,-5 5,-5 0.552,0 1,0.447 1,1 0,0.553 -0.448,1 -1,1 -1.654,0 -3,1.346 -3,3 0,0.552 -0.448,1 -1,1 z"
       id="path21"
       inkscape:connector-curvature="0" /><path
       style="fill:#cf8c6d"
       d="m 18.739,14.223 c -0.552,0 -1,-0.447 -1,-1 0,-2.206 -1.794,-4 -4,-4 -0.552,0 -1,-0.447 -1,-1 0,-0.553 0.448,-1 1,-1 3.309,0 6,2.691 6,6 0,0.552 -0.448,1 -1,1 z"
       id="path23"
       inkscape:connector-curvature="0" /><path
       style="fill:#cf8c6d"
       d="m 50.739,38.223 c -0.552,0 -1,-0.447 -1,-1 0,-3.309 -2.691,-6 -6,-6 -4.411,0 -8,-3.589 -8,-8 0,-0.553 0.448,-1 1,-1 0.552,0 1,0.447 1,1 0,3.309 2.691,6 6,6 4.411,0 8,3.589 8,8 0,0.552 -0.448,1 -1,1 z"
       id="path25"
       inkscape:connector-curvature="0" /><g
       id="g27"><path
         style="fill:#f7e1d5"
         d="m 29.739,12.223 c -4.411,0 -8,3.589 -8,8 0,3.309 -2.691,6 -6,6 -0.552,0 -1,0.447 -1,1 0,0.553 0.448,1 1,1 4.411,0 8,-3.589 8,-8 0,-3.309 2.691,-6 6,-6 0.552,0 1,-0.447 1,-1 0,-0.553 -0.448,-1 -1,-1 z"
         id="path29"
         inkscape:connector-curvature="0" /><path
         style="fill:#f7e1d5"
         d="m 26.276,27.859 c -0.391,-0.391 -1.023,-0.391 -1.414,0 -1.369,1.368 -2.123,3.188 -2.123,5.121 0,1.619 0.535,3.153 1.51,4.414 -0.975,1.261 -1.51,2.796 -1.51,4.414 0,1.934 0.754,3.753 2.123,5.121 0.195,0.195 0.451,0.293 0.707,0.293 0.256,0 0.512,-0.098 0.707,-0.293 0.391,-0.391 0.391,-1.023 0,-1.414 -0.991,-0.991 -1.537,-2.308 -1.537,-3.707 0,-1.399 0.546,-2.716 1.537,-3.707 0.391,-0.391 0.391,-1.023 0,-1.414 -0.991,-0.991 -1.537,-2.308 -1.537,-3.707 0,-1.399 0.546,-2.716 1.537,-3.707 0.39,-0.39 0.39,-1.023 0,-1.414 z"
         id="path31"
         inkscape:connector-curvature="0" /><path
         style="fill:#f7e1d5"
         d="m 35.964,31.202 c -0.391,-0.391 -1.023,-0.391 -1.414,0 -0.391,0.391 -0.391,1.023 0,1.414 1.858,1.859 1.858,4.884 0,6.743 -1.279,1.279 -1.984,2.979 -1.984,4.785 0,1.806 0.705,3.506 1.984,4.785 0.195,0.195 0.451,0.293 0.707,0.293 0.256,0 0.512,-0.098 0.707,-0.293 0.391,-0.391 0.391,-1.023 0,-1.414 -0.901,-0.901 -1.398,-2.099 -1.398,-3.371 0,-1.272 0.497,-2.47 1.398,-3.371 2.638,-2.638 2.638,-6.932 0,-9.571 z"
         id="path33"
         inkscape:connector-curvature="0" /><path
         style="fill:#f7e1d5"
         d="m 47.554,21.692 c -2.583,0.453 -5.066,-1.282 -5.521,-3.871 -0.313,-1.781 -1.3,-3.334 -2.779,-4.371 -1.479,-1.037 -3.276,-1.436 -5.057,-1.124 -0.544,0.096 -0.908,0.614 -0.812,1.158 0.096,0.544 0.613,0.902 1.158,0.813 1.258,-0.226 2.521,0.061 3.563,0.79 1.042,0.731 1.737,1.825 1.958,3.08 0.577,3.281 3.44,5.599 6.664,5.599 0.387,0 0.779,-0.034 1.173,-0.103 0.544,-0.096 0.908,-0.614 0.812,-1.158 -0.096,-0.544 -0.611,-0.907 -1.159,-0.813 z"
         id="path35"
         inkscape:connector-curvature="0" /><path
         style="fill:#f7e1d5"
         d="m 13.609,22.796 c 1.645,0 3.195,-1.012 3.797,-2.643 0.191,-0.519 -0.073,-1.094 -0.591,-1.285 -0.517,-0.19 -1.094,0.074 -1.285,0.592 -0.391,1.058 -1.569,1.6 -2.624,1.209 -2.09,-0.768 -4.42,0.303 -5.192,2.393 -0.191,0.519 0.074,1.094 0.592,1.285 0.114,0.042 0.231,0.062 0.346,0.062 0.407,0 0.789,-0.25 0.938,-0.653 0.39,-1.057 1.564,-1.602 2.624,-1.209 0.46,0.168 0.931,0.249 1.395,0.249 z"
         id="path37"
         inkscape:connector-curvature="0" /><path
         style="fill:#f7e1d5"
         d="m 16.794,38.1 c -1.056,-0.389 -1.599,-1.566 -1.21,-2.622 0,0 0,-0.001 0,-0.001 0.772,-2.091 -0.302,-4.42 -2.393,-5.193 -0.516,-0.189 -1.094,0.074 -1.285,0.592 -0.191,0.519 0.073,1.094 0.591,1.285 1.057,0.39 1.6,1.567 1.21,2.623 0,10e-4 0,0.002 0,0.002 -0.77,2.089 0.303,4.418 2.393,5.191 0.114,0.042 0.231,0.062 0.347,0.062 0.407,0 0.789,-0.25 0.938,-0.653 0.192,-0.519 -0.073,-1.093 -0.591,-1.286 z"
         id="path39"
         inkscape:connector-curvature="0" /></g><path
       inkscape:connector-curvature="0"
       d="m 29.738504,9.1749261 c -46.994177,88.0233279 -23.4970883,44.0116629 0,0 z m 0,8.4368079 c -46.994177,82.398786 -23.4970883,41.199394 0,0 z m -21.3574207,40.318648 0,6.202871 c 0,13.646311 7.6886707,24.811471 17.0859357,24.811471 l 8.542969,0 c 9.397265,0 17.085936,-11.16516 17.085936,-24.811471 l 0,-6.20287 z M 21.195536,81.674579 C 19.424338,80.757912 17.796768,79.268832 16.42055,77.269961 13.990743,73.741887 12.652566,69.076356 12.652566,64.133253 l 8.54297,0 z m 12.814452,1.067283 -8.542969,0 0,-18.608609 8.542969,0 z m 9.046338,-5.471901 c -1.376354,1.998871 -3.00419,3.487951 -4.774852,4.404618 l 0,-17.541326 8.542968,0 c 0,4.943103 -1.337909,9.608634 -3.768116,13.136708 z M 10.607059,45.524645 c 7.5e-5,0 0,0 0,0 0.651935,0 1.208563,-0.683867 1.316418,-1.617592 0.410997,-3.555409 2.514036,-6.135994 5.000573,-6.135994 2.486539,0 4.589577,2.580585 5.000573,6.135994 0.107856,0.933532 0.664484,1.617592 1.316286,1.617592 0.651935,0 1.208563,-0.683867 1.316418,-1.617398 0.07222,-0.623777 0.108656,-1.253562 0.108656,-1.871717 0,-6.199186 -3.473118,-11.2427 -7.742066,-11.2427 -4.268948,0 -7.7420652,5.043514 -7.7420652,11.2427 0,0.618155 0.036573,1.24794 0.1086556,1.871717 0.1081219,0.933531 0.6647501,1.617398 1.3165516,1.617398 z m 25.628906,0 c 2.85e-4,0 0,0 0,0 0.65207,0 1.208964,-0.683867 1.316285,-1.617592 3.90837,-11.670013 7.962363,-2.506305 11.317434,1.617592 0.651799,0 1.208694,-0.683867 1.316281,-1.617398 0.07222,-0.623777 0.108389,-1.253562 0.108389,-1.871717 0,-6.199186 -3.473249,-11.2427 -7.742063,-11.2427 -4.268816,0 -7.741933,5.043514 -7.741933,11.2427 0,0.618155 0.03617,1.24794 0.108389,1.871717 0.108789,0.933531 0.665417,1.617398 1.317218,1.617398 z"
       id="path5"
       sodipodi:nodetypes="cccccsssscccccccccccccccccsccscscssscssccccssscs" /><ellipse
       style="fill:#000000"
       id="path3409"
       cx="16.596062"
       cy="45.351707"
       rx="2.986918"
       ry="6.5062137" /><ellipse
       style="fill:#000000"
       id="path3409-5"
       cx="42.283554"
       cy="45.78545"
       rx="2.9869177"
       ry="6.5062137" /><path
       style="fill:#ffffff"
       d="m 28.125565,38.559242 0,-2.520212 1.638138,0 1.638137,0 0,2.520212 0,2.520212 -1.638137,0 -1.638138,0 0,-2.520212 z"
       id="path3426"
       inkscape:connector-curvature="0"
       transform="matrix(2.3703704,0,0,3.4421517,-40.752761,-59.181468)" /><path
       style="fill:#ffffff"
       d="m 33.41801,38.307221 0,-2.268191 1.638138,0 c 1.605939,0 1.638137,0.01319 1.638137,0.670917 0,1.300319 -1.990919,3.865465 -3.000153,3.865465 -0.179695,0 -0.276122,-0.792095 -0.276122,-2.268191 z"
       id="path3428"
       inkscape:connector-curvature="0"
       transform="matrix(2.3703704,0,0,3.4421517,-40.752761,-59.181468)" /><path
       style="fill:#ffffff"
       d="M 24.893948,40.074748 C 23.868221,39.331714 23.0627,38.082765 22.73807,36.732089 l -0.166574,-0.693059 1.76895,0 1.768949,0 0,2.394202 c 0,1.31681 -0.03969,2.394201 -0.0882,2.394201 -0.04851,0 -0.555772,-0.338708 -1.12725,-0.752685 z"
       id="path3430"
       inkscape:connector-curvature="0"
       transform="matrix(2.3703704,0,0,3.4421517,-40.752761,-59.181468)" /></g><g
     id="g41" /><g
     id="g43" /><g
     id="g45" /><g
     id="g47" /><g
     id="g49" /><g
     id="g51" /><g
     id="g53" /><g
     id="g55" /><g
     id="g57" /><g
     id="g59" /><g
     id="g61" /><g
     id="g63" /><g
     id="g65" /><g
     id="g67" /><g
     id="g69" /></svg>